<?xml version="1.0" encoding="UTF-8"?>
<svg id="Layer_1" data-name="Layer 1" xmlns="http://www.w3.org/2000/svg" viewBox="0 0 595.28 841.89">
  <defs>
    <style>
      .cls-1 {
        fill: #e44197;
        stroke: #e44197;
        stroke-miterlimit: 10;
      }
    </style>
  </defs>
  <polygon class="cls-1" points="163.65 268.79 130.22 413.52 141.23 413.52 146.93 401.73 186.06 400.94 183.31 369.87 166.01 369.87 178.99 356.5 195.11 277.83 163.65 268.79"/>
  <path class="cls-1" d="M263.55,256.6h-13.37l-44.84,57.03-14.16,87.31h34.61l2.36-29.1,23.99,1.97,1.97,22.81,35.4-7.08-25.96-132.94ZM231.29,347.84l9.05-58.6,7.87,58.6h-16.91Z"/>
  <path class="cls-1" d="M380.75,271.54l-16.13-11.01-59.39-2.36-1.57,118.38,58.21,18.88s8.65-15.73,20.45-20.06c11.8-4.33,21.24-94.39-1.57-103.83ZM355.97,359.64c-4.72,21.24-20.85,10.62-20.85,10.62l3.15-83.77c18.88-4.72,21.24,11.8,21.24,11.8,0,0,1.18,40.12-3.54,61.36Z"/>
  <polygon class="cls-1" points="402.78 258.17 430.7 341.16 399.24 365.94 436.21 363.97 434.63 341.16 487.73 299.47 503.85 262.89 467.28 261.32 451.55 303.79 439.35 262.5 402.78 258.17"/>
  <path class="cls-1" d="M82.23,486.29h52.7s7.08-80.23-52.7-85.35l-35.4-1.97s-35-.39-46.8,33.82v175.41s-3.15,46.41,53.1,42.08c0,0,29.89-1.18,51.13-19.67v16.13h42.08l-7.08-136.87-74.73,2.75-.39,42.08,21.63.79s10.62,51.92-17.7,49.16c-28.32-2.75-21.24-42.48-22.81-144.34,0,0,1.57-18.49,19.27-14.16,17.7,4.33,17.7,40.12,17.7,40.12Z"/>
  <path class="cls-1" d="M257.65,431.22l-4.72,18.49-7.08-29.89-67.65-4.33-24.78,81.02,26.74,74.73-13.37,70.01,48.38-2.36,8.65-74.33,22.02,1.18,11.01,37.76,40.12-47.98-39.33-124.28ZM211.24,524.78l-9.83,14.61h-16.13l22.81-69.22,12.19,42.08,4.92-13.77,10.82,26.3h-24.78Z"/>
  <path class="cls-1" d="M318.8,479.6l8.46,5.9-12.98,131.36s2.75,44.84,48.38,49.95,52.7-14.16,52.7-14.16v12.19l41.06,2.83,5.75-131.44-73.94-3.93-1.57,41.34h18.09s7.87,55.02-18.88,51.48c0,0-18.88-.79-18.09-20.85.79-20.06,3.54-107.37,3.54-107.37l-7.47-1.57s-4.33-32.25,18.09-31.07c22.42,1.18,19.27,40.51,19.27,40.51l52.31,2.36s7.47-82.59-46.8-85.35h-44.05s-27.92-.39-39.33,26.74l-4.52,31.07Z"/>
  <path class="cls-1" d="M595.1,629.45l-25.17-31.86-.39-114.45-60.96-16.91-16.91,28.71,16.91,23.21-33.43,128.61,47.2,35.79,14.16-55.46,39.72,4.33,7.08,46.02s11.41,3.93,11.8,2.75c.39-1.18,0-50.74,0-50.74ZM527.06,544.73l-7.47-11.64,7.47-14.95v26.59ZM540.43,589.33l5.9-23.6,14.16,19.67-20.06,3.93Z"/>
</svg>